<svg xmlns="http://www.w3.org/2000/svg" width="256" height="256" viewBox="0 0 256 256" role="img" aria-label="Competition">
  <defs>
    <linearGradient id="g" x1="0" y1="0" x2="1" y2="1">
      <stop offset="0%" stop-color="#0f172a" />
      <stop offset="100%" stop-color="#1e1b4b" />
    </linearGradient>
  </defs>
  <rect width="256" height="256" rx="32" fill="url(#g)" />
  <path d="M80 64h96v28c0 25-21 46-48 46s-48-21-48-46V64z" fill="#67e8f9" opacity="0.2" />
  <path d="M68 72h26v18c0 11-9 20-20 20h-6V72zm120 0h-26v18c0 11 9 20 20 20h6V72z" fill="#0ea5e9" opacity="0.4" />
  <path d="M100 138h56l-8 42h-40l-8-42z" fill="#67e8f9" opacity="0.28" />
  <path d="M88 196h80" stroke="#67e8f9" stroke-width="10" stroke-linecap="round" />
  <path d="M80 64h96v28c0 25-21 46-48 46s-48-21-48-46V64z" fill="none" stroke="#67e8f9" stroke-width="10" />
</svg>
